<svg xmlns="http://www.w3.org/2000/svg" xmlns:xlink="http://www.w3.org/1999/xlink" xmlns:s="https://github.com/nturley/netlistsvg" width="226" height="379">
  <style>svg {
    stroke:#000;
    fill:none;
  }
  text {
    fill:#000;
    stroke:none;
    font-size:10px;
    font-weight: bold;
    font-family: "Courier New", monospace;
  }
  .nodelabel {
    text-anchor: middle;
  }
  .inputPortLabel {
    text-anchor: end;
  }
  .splitjoinBody {
    fill:#000;
  }</style>
  <g s:type="generic" transform="translate(95,111.5)" s:width="30" s:height="40" id="cell_mux_4to20">
    <text x="15" y="-4" class="nodelabel cell_mux_4to20" s:attribute="ref">sky130_fd_sc_hd__udp_mux_4to2</text>
    <rect width="30" height="120" s:generic="body" class="cell_mux_4to20"/>
    <g transform="translate(0,10)" s:x="0" s:y="10" s:pid="in0" id="port_mux_4to20~A0">
      <text x="-3" y="-4" class="inputPortLabel cell_mux_4to20">A0</text>
    </g>
    <g transform="translate(0,30)" s:x="0" s:y="10" s:pid="in0" id="port_mux_4to20~A1">
      <text x="-3" y="-4" class="inputPortLabel cell_mux_4to20">A1</text>
    </g>
    <g transform="translate(0,50)" s:x="0" s:y="10" s:pid="in0" id="port_mux_4to20~A2">
      <text x="-3" y="-4" class="inputPortLabel cell_mux_4to20">A2</text>
    </g>
    <g transform="translate(0,70)" s:x="0" s:y="10" s:pid="in0" id="port_mux_4to20~A3">
      <text x="-3" y="-4" class="inputPortLabel cell_mux_4to20">A3</text>
    </g>
    <g transform="translate(0,90)" s:x="0" s:y="10" s:pid="in0" id="port_mux_4to20~S0">
      <text x="-3" y="-4" class="inputPortLabel cell_mux_4to20">S0</text>
    </g>
    <g transform="translate(0,110)" s:x="0" s:y="10" s:pid="in0" id="port_mux_4to20~S1">
      <text x="-3" y="-4" class="inputPortLabel cell_mux_4to20">S1</text>
    </g>
    <g transform="translate(30,10)" s:x="30" s:y="10" s:pid="out0" id="port_mux_4to20~X">
      <text x="5" y="-4" style="fill:#000; stroke:none" class="cell_mux_4to20">X</text>
    </g>
  </g>
  <g s:type="outputExt" transform="translate(184,112)" s:width="30" s:height="20" id="cell_X">
    <text x="15" y="-4" class="nodelabel cell_X" s:attribute="ref">X</text>
    <s:alias val="$_outputExt_"/>
    <path d="M30,0 L30,20 L15,20 L0,10 L15,0 Z" class="cell_X"/>
    <g s:x="0" s:y="10" s:pid="A"/>
  </g>
  <g s:type="inputExt" transform="translate(12,22)" s:width="30" s:height="20" id="cell_A0">
    <text x="15" y="-4" class="nodelabel cell_A0" s:attribute="ref">A0</text>
    <s:alias val="$_inputExt_"/>
    <path d="M0,0 L0,20 L15,20 L30,10 L15,0 Z" class="cell_A0"/>
    <g s:x="28" s:y="10" s:pid="Y"/>
  </g>
  <g s:type="inputExt" transform="translate(12,87)" s:width="30" s:height="20" id="cell_A1">
    <text x="15" y="-4" class="nodelabel cell_A1" s:attribute="ref">A1</text>
    <s:alias val="$_inputExt_"/>
    <path d="M0,0 L0,20 L15,20 L30,10 L15,0 Z" class="cell_A1"/>
    <g s:x="28" s:y="10" s:pid="Y"/>
  </g>
  <g s:type="inputExt" transform="translate(12,152)" s:width="30" s:height="20" id="cell_A2">
    <text x="15" y="-4" class="nodelabel cell_A2" s:attribute="ref">A2</text>
    <s:alias val="$_inputExt_"/>
    <path d="M0,0 L0,20 L15,20 L30,10 L15,0 Z" class="cell_A2"/>
    <g s:x="28" s:y="10" s:pid="Y"/>
  </g>
  <g s:type="inputExt" transform="translate(12,217)" s:width="30" s:height="20" id="cell_A3">
    <text x="15" y="-4" class="nodelabel cell_A3" s:attribute="ref">A3</text>
    <s:alias val="$_inputExt_"/>
    <path d="M0,0 L0,20 L15,20 L30,10 L15,0 Z" class="cell_A3"/>
    <g s:x="28" s:y="10" s:pid="Y"/>
  </g>
  <g s:type="inputExt" transform="translate(12,282)" s:width="30" s:height="20" id="cell_S0">
    <text x="15" y="-4" class="nodelabel cell_S0" s:attribute="ref">S0</text>
    <s:alias val="$_inputExt_"/>
    <path d="M0,0 L0,20 L15,20 L30,10 L15,0 Z" class="cell_S0"/>
    <g s:x="28" s:y="10" s:pid="Y"/>
  </g>
  <g s:type="inputExt" transform="translate(12,347)" s:width="30" s:height="20" id="cell_S1">
    <text x="15" y="-4" class="nodelabel cell_S1" s:attribute="ref">S1</text>
    <s:alias val="$_inputExt_"/>
    <path d="M0,0 L0,20 L15,20 L30,10 L15,0 Z" class="cell_S1"/>
    <g s:x="28" s:y="10" s:pid="Y"/>
  </g>
  <line x1="40" x2="62" y1="32" y2="32" class="net_3"/>
  <line x1="62" x2="62" y1="32" y2="122" class="net_3"/>
  <line x1="62" x2="95" y1="122" y2="122" class="net_3"/>
  <line x1="40" x2="52" y1="97" y2="97" class="net_4"/>
  <line x1="52" x2="52" y1="97" y2="142" class="net_4"/>
  <line x1="52" x2="95" y1="142" y2="142" class="net_4"/>
  <line x1="40" x2="95" y1="162" y2="162" class="net_5"/>
  <line x1="40" x2="52" y1="227" y2="227" class="net_6"/>
  <line x1="52" x2="52" y1="227" y2="182" class="net_6"/>
  <line x1="52" x2="95" y1="182" y2="182" class="net_6"/>
  <line x1="40" x2="62" y1="292" y2="292" class="net_7"/>
  <line x1="62" x2="62" y1="292" y2="202" class="net_7"/>
  <line x1="62" x2="95" y1="202" y2="202" class="net_7"/>
  <line x1="40" x2="72" y1="357" y2="357" class="net_8"/>
  <line x1="72" x2="72" y1="357" y2="222" class="net_8"/>
  <line x1="72" x2="95" y1="222" y2="222" class="net_8"/>
  <line x1="126" x2="184" y1="122" y2="122" class="net_2"/>
</svg>
